<mxfile host="Electron" agent="Mozilla/5.0 (Windows NT 10.0; Win64; x64) AppleWebKit/537.36 (KHTML, like Gecko) draw.io/26.2.2 Chrome/134.0.6998.178 Electron/35.1.2 Safari/537.36" version="26.2.2">
  <diagram name="Page-1" id="6Z0Flb3yhcv7H8M3qJwE">
    <mxGraphModel dx="2528" dy="1914" grid="0" gridSize="10" guides="1" tooltips="1" connect="1" arrows="1" fold="1" page="1" pageScale="1" pageWidth="850" pageHeight="1100" math="0" shadow="0">
      <root>
        <mxCell id="0" />
        <mxCell id="1" parent="0" />
        <mxCell id="n8_85XAYLcjXWphRHtEo-30" style="edgeStyle=orthogonalEdgeStyle;rounded=0;orthogonalLoop=1;jettySize=auto;html=1;exitX=1;exitY=0.25;exitDx=0;exitDy=0;exitPerimeter=0;entryX=0.15;entryY=0.25;entryDx=0;entryDy=0;labelBackgroundColor=none;fontColor=default;entryPerimeter=0;" parent="1" source="n8_85XAYLcjXWphRHtEo-1" target="8ml1ASoGrdvTZ8Xq-LBT-13" edge="1">
          <mxGeometry relative="1" as="geometry">
            <Array as="points">
              <mxPoint x="410" y="344" />
              <mxPoint x="410" y="367" />
            </Array>
            <mxPoint x="400.00000000000045" y="344" as="targetPoint" />
          </mxGeometry>
        </mxCell>
        <mxCell id="n8_85XAYLcjXWphRHtEo-32" style="edgeStyle=orthogonalEdgeStyle;rounded=0;orthogonalLoop=1;jettySize=auto;html=1;exitX=1;exitY=0.75;exitDx=0;exitDy=0;exitPerimeter=0;entryX=0.25;entryY=1;entryDx=0;entryDy=0;labelBackgroundColor=none;fontColor=default;" parent="1" source="n8_85XAYLcjXWphRHtEo-1" target="8ml1ASoGrdvTZ8Xq-LBT-4" edge="1">
          <mxGeometry relative="1" as="geometry">
            <Array as="points">
              <mxPoint x="400" y="464" />
            </Array>
            <mxPoint x="359" y="470" as="targetPoint" />
          </mxGeometry>
        </mxCell>
        <mxCell id="8ml1ASoGrdvTZ8Xq-LBT-24" style="edgeStyle=orthogonalEdgeStyle;rounded=0;orthogonalLoop=1;jettySize=auto;html=1;exitX=1;exitY=0.75;exitDx=0;exitDy=0;exitPerimeter=0;entryX=0;entryY=0.5;entryDx=0;entryDy=0;labelBackgroundColor=none;fontColor=default;" edge="1" parent="1" source="n8_85XAYLcjXWphRHtEo-1">
          <mxGeometry relative="1" as="geometry">
            <mxPoint x="700" y="482" as="targetPoint" />
            <Array as="points">
              <mxPoint x="340" y="464" />
              <mxPoint x="340" y="540" />
              <mxPoint x="640" y="540" />
              <mxPoint x="640" y="482" />
            </Array>
          </mxGeometry>
        </mxCell>
        <mxCell id="n8_85XAYLcjXWphRHtEo-1" value="Regfile" style="shape=process;whiteSpace=wrap;html=1;backgroundOutline=1;points=[[0,0,0,0,0],[0,0.2,0,0,0],[0,0.4,0,0,0],[0,0.6,0,0,0],[0,0.8,0,0,0],[0,1,0,0,0],[0.25,0,0,0,0],[0.25,1,0,0,0],[0.5,0,0,0,0],[0.5,1,0,0,0],[0.75,0,0,0,0],[0.75,1,0,0,0],[1,0,0,0,0],[1,0.25,0,0,0],[1,0.5,0,0,0],[1,0.75,0,0,0],[1,1,0,0,0]];labelBackgroundColor=none;" parent="1" vertex="1">
          <mxGeometry x="160" y="284" width="140" height="240" as="geometry" />
        </mxCell>
        <mxCell id="n8_85XAYLcjXWphRHtEo-12" style="edgeStyle=orthogonalEdgeStyle;rounded=0;orthogonalLoop=1;jettySize=auto;html=1;exitX=1;exitY=0.5;exitDx=0;exitDy=0;entryX=0;entryY=0.82;entryDx=0;entryDy=0;labelBackgroundColor=none;fontColor=default;entryPerimeter=0;" parent="1" source="n8_85XAYLcjXWphRHtEo-7" target="8ml1ASoGrdvTZ8Xq-LBT-48" edge="1">
          <mxGeometry relative="1" as="geometry">
            <mxPoint y="380" as="targetPoint" />
          </mxGeometry>
        </mxCell>
        <mxCell id="n8_85XAYLcjXWphRHtEo-7" value="Instruction Memory" style="rounded=0;whiteSpace=wrap;html=1;labelBackgroundColor=none;" parent="1" vertex="1">
          <mxGeometry x="-120" y="320" width="80" height="120" as="geometry" />
        </mxCell>
        <mxCell id="n8_85XAYLcjXWphRHtEo-47" style="edgeStyle=orthogonalEdgeStyle;rounded=0;orthogonalLoop=1;jettySize=auto;html=1;exitX=1;exitY=0.5;exitDx=0;exitDy=0;entryX=0;entryY=0.5;entryDx=0;entryDy=0;labelBackgroundColor=none;fontColor=default;" parent="1" target="n8_85XAYLcjXWphRHtEo-45" edge="1">
          <mxGeometry relative="1" as="geometry">
            <Array as="points">
              <mxPoint x="120" y="380" />
              <mxPoint x="120" y="580" />
            </Array>
            <mxPoint x="30" y="380" as="sourcePoint" />
          </mxGeometry>
        </mxCell>
        <mxCell id="n8_85XAYLcjXWphRHtEo-80" style="edgeStyle=orthogonalEdgeStyle;rounded=0;orthogonalLoop=1;jettySize=auto;html=1;exitX=1;exitY=0.5;exitDx=0;exitDy=0;entryX=0;entryY=0.5;entryDx=0;entryDy=0;fontStyle=1;labelBackgroundColor=none;fontColor=default;" parent="1" edge="1">
          <mxGeometry relative="1" as="geometry">
            <mxPoint x="30" y="380" as="sourcePoint" />
            <mxPoint x="700" y="715" as="targetPoint" />
            <Array as="points">
              <mxPoint x="70" y="380" />
              <mxPoint x="70" y="715" />
            </Array>
          </mxGeometry>
        </mxCell>
        <mxCell id="8ml1ASoGrdvTZ8Xq-LBT-30" style="edgeStyle=orthogonalEdgeStyle;rounded=0;orthogonalLoop=1;jettySize=auto;html=1;exitX=1;exitY=0.5;exitDx=0;exitDy=0;entryX=0;entryY=0.5;entryDx=0;entryDy=0;labelBackgroundColor=none;fontColor=default;" edge="1" parent="1" target="8ml1ASoGrdvTZ8Xq-LBT-27">
          <mxGeometry relative="1" as="geometry">
            <mxPoint x="30" y="380" as="sourcePoint" />
            <Array as="points">
              <mxPoint x="70" y="380" />
              <mxPoint x="70" y="200" />
            </Array>
          </mxGeometry>
        </mxCell>
        <mxCell id="8ml1ASoGrdvTZ8Xq-LBT-31" style="edgeStyle=orthogonalEdgeStyle;rounded=0;orthogonalLoop=1;jettySize=auto;html=1;exitX=1;exitY=0.5;exitDx=0;exitDy=0;entryX=0;entryY=0.5;entryDx=0;entryDy=0;labelBackgroundColor=none;fontColor=default;" edge="1" parent="1" target="8ml1ASoGrdvTZ8Xq-LBT-21">
          <mxGeometry relative="1" as="geometry">
            <mxPoint x="30" y="380" as="sourcePoint" />
            <Array as="points">
              <mxPoint x="70" y="380" />
              <mxPoint x="70" y="100" />
            </Array>
          </mxGeometry>
        </mxCell>
        <mxCell id="n8_85XAYLcjXWphRHtEo-11" style="edgeStyle=orthogonalEdgeStyle;rounded=0;orthogonalLoop=1;jettySize=auto;html=1;exitX=1;exitY=0.5;exitDx=0;exitDy=0;entryX=0;entryY=0.5;entryDx=0;entryDy=0;labelBackgroundColor=none;fontColor=default;" parent="1" source="n8_85XAYLcjXWphRHtEo-9" target="n8_85XAYLcjXWphRHtEo-7" edge="1">
          <mxGeometry relative="1" as="geometry" />
        </mxCell>
        <mxCell id="n8_85XAYLcjXWphRHtEo-22" style="edgeStyle=orthogonalEdgeStyle;rounded=0;orthogonalLoop=1;jettySize=auto;html=1;exitX=1;exitY=0.5;exitDx=0;exitDy=0;entryX=1;entryY=0.5;entryDx=0;entryDy=0;labelBackgroundColor=none;fontColor=default;" parent="1" source="n8_85XAYLcjXWphRHtEo-9" target="n8_85XAYLcjXWphRHtEo-21" edge="1">
          <mxGeometry relative="1" as="geometry" />
        </mxCell>
        <mxCell id="n8_85XAYLcjXWphRHtEo-55" style="edgeStyle=orthogonalEdgeStyle;rounded=0;orthogonalLoop=1;jettySize=auto;html=1;exitX=1;exitY=0.5;exitDx=0;exitDy=0;entryX=0;entryY=0.16;entryDx=0;entryDy=0;labelBackgroundColor=none;fontColor=default;entryPerimeter=0;" parent="1" source="n8_85XAYLcjXWphRHtEo-9" target="8ml1ASoGrdvTZ8Xq-LBT-48" edge="1">
          <mxGeometry relative="1" as="geometry">
            <Array as="points">
              <mxPoint x="-140" y="380" />
              <mxPoint x="-140" y="235" />
              <mxPoint y="235" />
            </Array>
            <mxPoint y="235" as="targetPoint" />
          </mxGeometry>
        </mxCell>
        <mxCell id="n8_85XAYLcjXWphRHtEo-9" value="PC" style="rounded=0;whiteSpace=wrap;html=1;labelBackgroundColor=none;" parent="1" vertex="1">
          <mxGeometry x="-190" y="355" width="30" height="50" as="geometry" />
        </mxCell>
        <mxCell id="n8_85XAYLcjXWphRHtEo-15" style="edgeStyle=orthogonalEdgeStyle;rounded=0;orthogonalLoop=1;jettySize=auto;html=1;exitX=1;exitY=0.5;exitDx=0;exitDy=0;entryX=0;entryY=0.2;entryDx=0;entryDy=0;entryPerimeter=0;labelBackgroundColor=none;fontColor=default;" parent="1" target="n8_85XAYLcjXWphRHtEo-1" edge="1">
          <mxGeometry relative="1" as="geometry">
            <Array as="points">
              <mxPoint x="120" y="380" />
              <mxPoint x="120" y="332" />
            </Array>
            <mxPoint x="30" y="380" as="sourcePoint" />
          </mxGeometry>
        </mxCell>
        <mxCell id="n8_85XAYLcjXWphRHtEo-16" style="edgeStyle=orthogonalEdgeStyle;rounded=0;orthogonalLoop=1;jettySize=auto;html=1;exitX=1;exitY=0.82;exitDx=0;exitDy=0;entryX=0;entryY=0.4;entryDx=0;entryDy=0;entryPerimeter=0;labelBackgroundColor=none;fontColor=default;exitPerimeter=0;" parent="1" source="8ml1ASoGrdvTZ8Xq-LBT-48" target="n8_85XAYLcjXWphRHtEo-1" edge="1">
          <mxGeometry relative="1" as="geometry">
            <mxPoint x="30" y="380" as="sourcePoint" />
          </mxGeometry>
        </mxCell>
        <mxCell id="n8_85XAYLcjXWphRHtEo-20" style="edgeStyle=orthogonalEdgeStyle;rounded=0;orthogonalLoop=1;jettySize=auto;html=1;exitX=0.5;exitY=0;exitDx=0;exitDy=0;entryX=0;entryY=0.5;entryDx=0;entryDy=0;labelBackgroundColor=none;fontColor=default;" parent="1" source="8ml1ASoGrdvTZ8Xq-LBT-1" target="n8_85XAYLcjXWphRHtEo-9" edge="1">
          <mxGeometry relative="1" as="geometry">
            <mxPoint x="-230" y="380" as="sourcePoint" />
          </mxGeometry>
        </mxCell>
        <mxCell id="n8_85XAYLcjXWphRHtEo-23" style="edgeStyle=orthogonalEdgeStyle;rounded=0;orthogonalLoop=1;jettySize=auto;html=1;exitX=0;exitY=0.5;exitDx=0;exitDy=0;entryX=0.25;entryY=1;entryDx=0;entryDy=0;labelBackgroundColor=none;fontColor=default;" parent="1" source="n8_85XAYLcjXWphRHtEo-21" target="8ml1ASoGrdvTZ8Xq-LBT-1" edge="1">
          <mxGeometry relative="1" as="geometry">
            <Array as="points">
              <mxPoint x="-280" y="235" />
              <mxPoint x="-280" y="363" />
              <mxPoint x="-245" y="363" />
            </Array>
            <mxPoint x="-250" y="365" as="targetPoint" />
          </mxGeometry>
        </mxCell>
        <mxCell id="n8_85XAYLcjXWphRHtEo-21" value="+4" style="rounded=0;whiteSpace=wrap;html=1;labelBackgroundColor=none;" parent="1" vertex="1">
          <mxGeometry x="-192" y="220" width="30" height="30" as="geometry" />
        </mxCell>
        <mxCell id="n8_85XAYLcjXWphRHtEo-24" value="raddr1" style="text;html=1;align=center;verticalAlign=middle;whiteSpace=wrap;rounded=0;labelBackgroundColor=none;" parent="1" vertex="1">
          <mxGeometry x="165" y="322" width="60" height="20" as="geometry" />
        </mxCell>
        <mxCell id="n8_85XAYLcjXWphRHtEo-25" value="raddr2" style="text;html=1;align=center;verticalAlign=middle;whiteSpace=wrap;rounded=0;labelBackgroundColor=none;" parent="1" vertex="1">
          <mxGeometry x="165" y="369" width="60" height="20" as="geometry" />
        </mxCell>
        <mxCell id="n8_85XAYLcjXWphRHtEo-26" value="waddr" style="text;html=1;align=center;verticalAlign=middle;whiteSpace=wrap;rounded=0;labelBackgroundColor=none;" parent="1" vertex="1">
          <mxGeometry x="164" y="417" width="60" height="20" as="geometry" />
        </mxCell>
        <mxCell id="n8_85XAYLcjXWphRHtEo-27" value="wdata" style="text;html=1;align=center;verticalAlign=middle;whiteSpace=wrap;rounded=0;labelBackgroundColor=none;" parent="1" vertex="1">
          <mxGeometry x="164" y="463" width="60" height="20" as="geometry" />
        </mxCell>
        <mxCell id="n8_85XAYLcjXWphRHtEo-37" style="edgeStyle=orthogonalEdgeStyle;rounded=0;orthogonalLoop=1;jettySize=auto;html=1;exitX=1;exitY=0.5;exitDx=0;exitDy=0;entryX=0;entryY=0.5;entryDx=0;entryDy=0;exitPerimeter=0;labelBackgroundColor=none;fontColor=default;" parent="1" source="8ml1ASoGrdvTZ8Xq-LBT-13" edge="1">
          <mxGeometry relative="1" as="geometry">
            <mxPoint x="670" y="381.5" as="sourcePoint" />
            <mxPoint x="700" y="381.5" as="targetPoint" />
          </mxGeometry>
        </mxCell>
        <mxCell id="n8_85XAYLcjXWphRHtEo-64" style="edgeStyle=orthogonalEdgeStyle;rounded=0;orthogonalLoop=1;jettySize=auto;html=1;exitX=1;exitY=0.5;exitDx=0;exitDy=0;entryX=0;entryY=0.25;entryDx=0;entryDy=0;labelBackgroundColor=none;fontColor=default;" parent="1" target="n8_85XAYLcjXWphRHtEo-63" edge="1">
          <mxGeometry relative="1" as="geometry">
            <mxPoint x="730" y="381.5" as="sourcePoint" />
          </mxGeometry>
        </mxCell>
        <mxCell id="n8_85XAYLcjXWphRHtEo-71" style="edgeStyle=orthogonalEdgeStyle;rounded=0;orthogonalLoop=1;jettySize=auto;html=1;exitX=1;exitY=0.5;exitDx=0;exitDy=0;entryX=0.5;entryY=1;entryDx=0;entryDy=0;labelBackgroundColor=none;fontColor=default;" parent="1" target="8ml1ASoGrdvTZ8Xq-LBT-17" edge="1">
          <mxGeometry relative="1" as="geometry">
            <Array as="points">
              <mxPoint x="800" y="382" />
              <mxPoint x="800" y="280" />
              <mxPoint x="1080" y="280" />
              <mxPoint x="1080" y="408" />
              <mxPoint x="1180" y="408" />
            </Array>
            <mxPoint x="730" y="381.5" as="sourcePoint" />
            <mxPoint x="1140" y="410" as="targetPoint" />
          </mxGeometry>
        </mxCell>
        <mxCell id="n8_85XAYLcjXWphRHtEo-58" style="edgeStyle=orthogonalEdgeStyle;rounded=0;orthogonalLoop=1;jettySize=auto;html=1;exitX=1;exitY=0.5;exitDx=0;exitDy=0;entryX=0;entryY=0.5;entryDx=0;entryDy=0;labelBackgroundColor=none;fontColor=default;" parent="1" source="n8_85XAYLcjXWphRHtEo-45" target="8ml1ASoGrdvTZ8Xq-LBT-12" edge="1">
          <mxGeometry relative="1" as="geometry">
            <mxPoint x="520" y="580" as="targetPoint" />
          </mxGeometry>
        </mxCell>
        <mxCell id="8ml1ASoGrdvTZ8Xq-LBT-7" style="edgeStyle=orthogonalEdgeStyle;rounded=0;orthogonalLoop=1;jettySize=auto;html=1;exitX=1;exitY=0.5;exitDx=0;exitDy=0;entryX=0.75;entryY=1;entryDx=0;entryDy=0;labelBackgroundColor=none;fontColor=default;" edge="1" parent="1" source="n8_85XAYLcjXWphRHtEo-45" target="8ml1ASoGrdvTZ8Xq-LBT-4">
          <mxGeometry relative="1" as="geometry">
            <Array as="points">
              <mxPoint x="360" y="580" />
              <mxPoint x="360" y="499" />
            </Array>
          </mxGeometry>
        </mxCell>
        <mxCell id="n8_85XAYLcjXWphRHtEo-45" value="Immediate Value Generator" style="ellipse;whiteSpace=wrap;html=1;labelBackgroundColor=none;" parent="1" vertex="1">
          <mxGeometry x="170" y="540" width="120" height="80" as="geometry" />
        </mxCell>
        <mxCell id="n8_85XAYLcjXWphRHtEo-61" style="edgeStyle=orthogonalEdgeStyle;rounded=0;orthogonalLoop=1;jettySize=auto;html=1;exitX=1;exitY=0.5;exitDx=0;exitDy=0;entryX=0;entryY=0.5;entryDx=0;entryDy=0;labelBackgroundColor=none;fontColor=default;" parent="1" source="8ml1ASoGrdvTZ8Xq-LBT-12" edge="1">
          <mxGeometry relative="1" as="geometry">
            <mxPoint x="559" y="580" as="sourcePoint" />
            <mxPoint x="700" y="580" as="targetPoint" />
          </mxGeometry>
        </mxCell>
        <mxCell id="n8_85XAYLcjXWphRHtEo-74" style="rounded=0;orthogonalLoop=1;jettySize=auto;html=1;exitX=1;exitY=0.5;exitDx=0;exitDy=0;entryX=0;entryY=0.5;entryDx=0;entryDy=0;labelBackgroundColor=none;fontColor=default;" parent="1" edge="1">
          <mxGeometry relative="1" as="geometry">
            <mxPoint x="30" y="235" as="sourcePoint" />
            <mxPoint x="700" y="235" as="targetPoint" />
          </mxGeometry>
        </mxCell>
        <mxCell id="8ml1ASoGrdvTZ8Xq-LBT-32" style="edgeStyle=orthogonalEdgeStyle;rounded=0;orthogonalLoop=1;jettySize=auto;html=1;exitX=1;exitY=0.16;exitDx=0;exitDy=0;entryX=0.5;entryY=0;entryDx=0;entryDy=0;labelBackgroundColor=none;fontColor=default;exitPerimeter=0;" edge="1" parent="1" source="8ml1ASoGrdvTZ8Xq-LBT-48" target="8ml1ASoGrdvTZ8Xq-LBT-12">
          <mxGeometry relative="1" as="geometry">
            <mxPoint x="30" y="235" as="sourcePoint" />
            <Array as="points">
              <mxPoint x="480" y="235" />
            </Array>
          </mxGeometry>
        </mxCell>
        <mxCell id="n8_85XAYLcjXWphRHtEo-62" style="edgeStyle=orthogonalEdgeStyle;rounded=0;orthogonalLoop=1;jettySize=auto;html=1;exitX=1;exitY=0.5;exitDx=0;exitDy=0;entryX=0.75;entryY=1;entryDx=0;entryDy=0;labelBackgroundColor=none;fontColor=default;" parent="1" target="8ml1ASoGrdvTZ8Xq-LBT-1" edge="1">
          <mxGeometry relative="1" as="geometry">
            <Array as="points">
              <mxPoint x="800" y="580" />
              <mxPoint x="800" y="850" />
              <mxPoint x="-280" y="850" />
              <mxPoint x="-280" y="396" />
            </Array>
            <mxPoint x="730" y="580" as="sourcePoint" />
            <mxPoint x="-250" y="395" as="targetPoint" />
          </mxGeometry>
        </mxCell>
        <mxCell id="n8_85XAYLcjXWphRHtEo-72" style="edgeStyle=orthogonalEdgeStyle;rounded=0;orthogonalLoop=1;jettySize=auto;html=1;exitX=1;exitY=0.5;exitDx=0;exitDy=0;entryX=0.75;entryY=1;entryDx=0;entryDy=0;labelBackgroundColor=none;fontColor=default;" parent="1" source="n8_85XAYLcjXWphRHtEo-63" target="8ml1ASoGrdvTZ8Xq-LBT-17" edge="1">
          <mxGeometry relative="1" as="geometry">
            <mxPoint x="1180" y="432.5" as="targetPoint" />
          </mxGeometry>
        </mxCell>
        <mxCell id="n8_85XAYLcjXWphRHtEo-63" value="Data Memory" style="rounded=0;whiteSpace=wrap;html=1;labelBackgroundColor=none;" parent="1" vertex="1">
          <mxGeometry x="870" y="332" width="120" height="200" as="geometry" />
        </mxCell>
        <mxCell id="n8_85XAYLcjXWphRHtEo-66" value="rdata1" style="text;html=1;align=center;verticalAlign=middle;whiteSpace=wrap;rounded=0;labelBackgroundColor=none;" parent="1" vertex="1">
          <mxGeometry x="238" y="360" width="60" height="20" as="geometry" />
        </mxCell>
        <mxCell id="n8_85XAYLcjXWphRHtEo-67" value="rdata2" style="text;html=1;align=center;verticalAlign=middle;whiteSpace=wrap;rounded=0;labelBackgroundColor=none;" parent="1" vertex="1">
          <mxGeometry x="241" y="460" width="53" height="20" as="geometry" />
        </mxCell>
        <mxCell id="n8_85XAYLcjXWphRHtEo-76" style="edgeStyle=orthogonalEdgeStyle;rounded=0;orthogonalLoop=1;jettySize=auto;html=1;exitX=1;exitY=0.5;exitDx=0;exitDy=0;entryX=0;entryY=0.5;entryDx=0;entryDy=0;labelBackgroundColor=none;fontColor=default;" parent="1" target="n8_85XAYLcjXWphRHtEo-75" edge="1">
          <mxGeometry relative="1" as="geometry">
            <mxPoint x="730" y="235" as="sourcePoint" />
          </mxGeometry>
        </mxCell>
        <mxCell id="n8_85XAYLcjXWphRHtEo-77" style="edgeStyle=orthogonalEdgeStyle;rounded=0;orthogonalLoop=1;jettySize=auto;html=1;exitX=1;exitY=0.5;exitDx=0;exitDy=0;entryX=0.25;entryY=1;entryDx=0;entryDy=0;labelBackgroundColor=none;fontColor=default;" parent="1" source="n8_85XAYLcjXWphRHtEo-75" target="8ml1ASoGrdvTZ8Xq-LBT-17" edge="1">
          <mxGeometry relative="1" as="geometry">
            <Array as="points">
              <mxPoint x="1120" y="235" />
              <mxPoint x="1120" y="383" />
            </Array>
            <mxPoint x="1180" y="410" as="targetPoint" />
          </mxGeometry>
        </mxCell>
        <mxCell id="n8_85XAYLcjXWphRHtEo-75" value="+4" style="rounded=0;whiteSpace=wrap;html=1;labelBackgroundColor=none;" parent="1" vertex="1">
          <mxGeometry x="920" y="220" width="30" height="30" as="geometry" />
        </mxCell>
        <mxCell id="n8_85XAYLcjXWphRHtEo-78" style="edgeStyle=orthogonalEdgeStyle;rounded=0;orthogonalLoop=1;jettySize=auto;html=1;exitX=0.5;exitY=0;exitDx=0;exitDy=0;entryX=0;entryY=0.8;entryDx=0;entryDy=0;entryPerimeter=0;labelBackgroundColor=none;fontColor=default;" parent="1" source="8ml1ASoGrdvTZ8Xq-LBT-17" target="n8_85XAYLcjXWphRHtEo-1" edge="1">
          <mxGeometry relative="1" as="geometry">
            <Array as="points">
              <mxPoint x="1198" y="411" />
              <mxPoint x="1220" y="411" />
              <mxPoint x="1220" y="880" />
              <mxPoint y="880" />
              <mxPoint y="476" />
            </Array>
            <mxPoint x="1200" y="410" as="sourcePoint" />
          </mxGeometry>
        </mxCell>
        <mxCell id="n8_85XAYLcjXWphRHtEo-81" style="edgeStyle=orthogonalEdgeStyle;rounded=0;orthogonalLoop=1;jettySize=auto;html=1;exitX=1;exitY=0.5;exitDx=0;exitDy=0;entryX=0;entryY=0.6;entryDx=0;entryDy=0;entryPerimeter=0;labelBackgroundColor=none;fontColor=default;" parent="1" target="n8_85XAYLcjXWphRHtEo-1" edge="1">
          <mxGeometry relative="1" as="geometry">
            <mxPoint x="730" y="715" as="sourcePoint" />
            <Array as="points">
              <mxPoint x="770" y="715" />
              <mxPoint x="770" y="820" />
              <mxPoint x="40" y="820" />
              <mxPoint x="40" y="428" />
            </Array>
          </mxGeometry>
        </mxCell>
        <mxCell id="n8_85XAYLcjXWphRHtEo-86" style="edgeStyle=orthogonalEdgeStyle;rounded=0;orthogonalLoop=1;jettySize=auto;html=1;exitX=1;exitY=0.5;exitDx=0;exitDy=0;entryX=0;entryY=0.75;entryDx=0;entryDy=0;labelBackgroundColor=none;fontColor=default;" parent="1" target="n8_85XAYLcjXWphRHtEo-63" edge="1">
          <mxGeometry relative="1" as="geometry">
            <mxPoint x="730" y="482" as="sourcePoint" />
          </mxGeometry>
        </mxCell>
        <mxCell id="8ml1ASoGrdvTZ8Xq-LBT-1" value="" style="shape=trapezoid;perimeter=trapezoidPerimeter;whiteSpace=wrap;html=1;fixedSize=1;fontFamily=Helvetica;fontSize=11;labelBackgroundColor=none;size=10;rotation=90;" vertex="1" parent="1">
          <mxGeometry x="-270" y="370.5" width="68" height="18" as="geometry" />
        </mxCell>
        <mxCell id="8ml1ASoGrdvTZ8Xq-LBT-2" value="0" style="text;html=1;align=center;verticalAlign=middle;whiteSpace=wrap;rounded=0;fontFamily=Helvetica;fontSize=11;labelBackgroundColor=none;" vertex="1" parent="1">
          <mxGeometry x="-240" y="384.5" width="10" height="20" as="geometry" />
        </mxCell>
        <mxCell id="8ml1ASoGrdvTZ8Xq-LBT-3" value="1" style="text;html=1;align=center;verticalAlign=middle;whiteSpace=wrap;rounded=0;fontFamily=Helvetica;fontSize=11;labelBackgroundColor=none;" vertex="1" parent="1">
          <mxGeometry x="-241" y="356.5" width="10" height="20" as="geometry" />
        </mxCell>
        <mxCell id="8ml1ASoGrdvTZ8Xq-LBT-8" style="edgeStyle=orthogonalEdgeStyle;rounded=0;orthogonalLoop=1;jettySize=auto;html=1;exitX=0.5;exitY=0;exitDx=0;exitDy=0;entryX=0.15;entryY=0;entryDx=0;entryDy=44;entryPerimeter=0;labelBackgroundColor=none;fontColor=default;" edge="1" parent="1" source="8ml1ASoGrdvTZ8Xq-LBT-4" target="8ml1ASoGrdvTZ8Xq-LBT-13">
          <mxGeometry relative="1" as="geometry">
            <mxPoint x="650" y="487" as="targetPoint" />
            <Array as="points">
              <mxPoint x="418" y="487" />
              <mxPoint x="520" y="487" />
              <mxPoint x="520" y="396" />
            </Array>
          </mxGeometry>
        </mxCell>
        <mxCell id="8ml1ASoGrdvTZ8Xq-LBT-4" value="" style="shape=trapezoid;perimeter=trapezoidPerimeter;whiteSpace=wrap;html=1;fixedSize=1;fontFamily=Helvetica;fontSize=11;labelBackgroundColor=none;size=10;rotation=90;" vertex="1" parent="1">
          <mxGeometry x="375" y="473" width="68" height="18" as="geometry" />
        </mxCell>
        <mxCell id="8ml1ASoGrdvTZ8Xq-LBT-5" value="0" style="text;html=1;align=center;verticalAlign=middle;whiteSpace=wrap;rounded=0;fontFamily=Helvetica;fontSize=11;labelBackgroundColor=none;" vertex="1" parent="1">
          <mxGeometry x="405" y="487" width="10" height="20" as="geometry" />
        </mxCell>
        <mxCell id="8ml1ASoGrdvTZ8Xq-LBT-6" value="1" style="text;html=1;align=center;verticalAlign=middle;whiteSpace=wrap;rounded=0;fontFamily=Helvetica;fontSize=11;labelBackgroundColor=none;" vertex="1" parent="1">
          <mxGeometry x="404" y="459" width="10" height="20" as="geometry" />
        </mxCell>
        <mxCell id="8ml1ASoGrdvTZ8Xq-LBT-12" value="+" style="ellipse;whiteSpace=wrap;html=1;aspect=fixed;labelBackgroundColor=none;" vertex="1" parent="1">
          <mxGeometry x="465" y="565" width="30" height="30" as="geometry" />
        </mxCell>
        <mxCell id="8ml1ASoGrdvTZ8Xq-LBT-39" style="edgeStyle=orthogonalEdgeStyle;rounded=0;orthogonalLoop=1;jettySize=auto;html=1;entryX=0;entryY=0.25;entryDx=0;entryDy=0;exitX=0.17;exitY=0.28;exitDx=70;exitDy=0;exitPerimeter=0;" edge="1" parent="1" source="8ml1ASoGrdvTZ8Xq-LBT-13">
          <mxGeometry relative="1" as="geometry">
            <mxPoint x="654" y="368" as="sourcePoint" />
            <mxPoint x="700" y="369" as="targetPoint" />
          </mxGeometry>
        </mxCell>
        <mxCell id="8ml1ASoGrdvTZ8Xq-LBT-13" value="ALU" style="html=1;shadow=0;dashed=0;align=center;verticalAlign=middle;shape=mxgraph.arrows2.arrow;dy=0;dx=30;notch=30;points=[[0,0,0,35,0],[0,0,0,35,60],[0,0,0,70,60],[0,0.5,0,30,0],[0.15,0,0,0,44],[0.15,0.25,0,0,0],[0.17,0.28,0,70,0],[1,0.5,0,0,0]];labelBackgroundColor=none;" vertex="1" parent="1">
          <mxGeometry x="568" y="352" width="100" height="60" as="geometry" />
        </mxCell>
        <mxCell id="8ml1ASoGrdvTZ8Xq-LBT-17" value="" style="shape=trapezoid;perimeter=trapezoidPerimeter;whiteSpace=wrap;html=1;fixedSize=1;fontFamily=Helvetica;fontSize=11;labelBackgroundColor=none;size=10;rotation=90;" vertex="1" parent="1">
          <mxGeometry x="1140" y="398.5" width="98" height="18" as="geometry" />
        </mxCell>
        <mxCell id="8ml1ASoGrdvTZ8Xq-LBT-18" value="0" style="text;html=1;align=center;verticalAlign=middle;whiteSpace=wrap;rounded=0;fontFamily=Helvetica;fontSize=11;labelBackgroundColor=none;" vertex="1" parent="1">
          <mxGeometry x="1184" y="422.5" width="10" height="20" as="geometry" />
        </mxCell>
        <mxCell id="8ml1ASoGrdvTZ8Xq-LBT-19" value="1" style="text;html=1;align=center;verticalAlign=middle;whiteSpace=wrap;rounded=0;fontFamily=Helvetica;fontSize=11;labelBackgroundColor=none;" vertex="1" parent="1">
          <mxGeometry x="1184" y="399.5" width="10" height="20" as="geometry" />
        </mxCell>
        <mxCell id="8ml1ASoGrdvTZ8Xq-LBT-20" value="2" style="text;html=1;align=center;verticalAlign=middle;whiteSpace=wrap;rounded=0;fontFamily=Helvetica;fontSize=11;labelBackgroundColor=none;" vertex="1" parent="1">
          <mxGeometry x="1185" y="373.5" width="10" height="20" as="geometry" />
        </mxCell>
        <mxCell id="8ml1ASoGrdvTZ8Xq-LBT-25" style="edgeStyle=orthogonalEdgeStyle;rounded=0;orthogonalLoop=1;jettySize=auto;html=1;exitX=1;exitY=0;exitDx=0;exitDy=0;entryX=0;entryY=0.5;entryDx=0;entryDy=0;labelBackgroundColor=none;fontColor=default;" edge="1" parent="1">
          <mxGeometry relative="1" as="geometry">
            <mxPoint x="254.9432719628735" y="47.237906363503726" as="sourcePoint" />
            <mxPoint x="700" y="48" as="targetPoint" />
          </mxGeometry>
        </mxCell>
        <mxCell id="8ml1ASoGrdvTZ8Xq-LBT-26" style="edgeStyle=orthogonalEdgeStyle;rounded=0;orthogonalLoop=1;jettySize=auto;html=1;exitX=1;exitY=0.5;exitDx=0;exitDy=0;entryX=0;entryY=0.5;entryDx=0;entryDy=0;labelBackgroundColor=none;fontColor=default;" edge="1" parent="1">
          <mxGeometry relative="1" as="geometry">
            <mxPoint x="265.00000000000387" y="99.5" as="sourcePoint" />
            <mxPoint x="700" y="99" as="targetPoint" />
          </mxGeometry>
        </mxCell>
        <mxCell id="8ml1ASoGrdvTZ8Xq-LBT-29" style="edgeStyle=orthogonalEdgeStyle;rounded=0;orthogonalLoop=1;jettySize=auto;html=1;exitX=1;exitY=1;exitDx=0;exitDy=0;entryX=0.5;entryY=0;entryDx=0;entryDy=0;labelBackgroundColor=none;fontColor=default;" edge="1" parent="1" source="8ml1ASoGrdvTZ8Xq-LBT-21" target="8ml1ASoGrdvTZ8Xq-LBT-27">
          <mxGeometry relative="1" as="geometry" />
        </mxCell>
        <mxCell id="8ml1ASoGrdvTZ8Xq-LBT-72" style="edgeStyle=orthogonalEdgeStyle;rounded=0;orthogonalLoop=1;jettySize=auto;html=1;exitX=1;exitY=0.5;exitDx=0;exitDy=0;entryX=0.25;entryY=1;entryDx=0;entryDy=0;" edge="1" parent="1" source="8ml1ASoGrdvTZ8Xq-LBT-21" target="8ml1ASoGrdvTZ8Xq-LBT-66">
          <mxGeometry relative="1" as="geometry">
            <Array as="points">
              <mxPoint x="474" y="101" />
              <mxPoint x="474" y="-40" />
            </Array>
          </mxGeometry>
        </mxCell>
        <mxCell id="8ml1ASoGrdvTZ8Xq-LBT-21" value="Controller" style="ellipse;whiteSpace=wrap;html=1;labelBackgroundColor=none;" vertex="1" parent="1">
          <mxGeometry x="195" y="26" width="70" height="149" as="geometry" />
        </mxCell>
        <mxCell id="8ml1ASoGrdvTZ8Xq-LBT-36" style="edgeStyle=orthogonalEdgeStyle;rounded=0;orthogonalLoop=1;jettySize=auto;html=1;exitX=1;exitY=0.5;exitDx=0;exitDy=0;entryX=0.5;entryY=0;entryDx=0;entryDy=0;" edge="1" parent="1" target="n8_85XAYLcjXWphRHtEo-63">
          <mxGeometry relative="1" as="geometry">
            <mxPoint x="730" y="100" as="sourcePoint" />
            <Array as="points">
              <mxPoint x="1000" y="100" />
              <mxPoint x="1000" y="300" />
              <mxPoint x="930" y="300" />
            </Array>
          </mxGeometry>
        </mxCell>
        <mxCell id="8ml1ASoGrdvTZ8Xq-LBT-47" style="edgeStyle=orthogonalEdgeStyle;rounded=0;orthogonalLoop=1;jettySize=auto;html=1;exitX=1;exitY=0.25;exitDx=0;exitDy=0;entryX=0;entryY=0.5;entryDx=0;entryDy=0;" edge="1" parent="1" target="8ml1ASoGrdvTZ8Xq-LBT-17">
          <mxGeometry relative="1" as="geometry">
            <mxPoint x="730" y="87.5" as="sourcePoint" />
          </mxGeometry>
        </mxCell>
        <mxCell id="8ml1ASoGrdvTZ8Xq-LBT-27" value="ALU&lt;br&gt;Control" style="ellipse;whiteSpace=wrap;html=1;labelBackgroundColor=none;" vertex="1" parent="1">
          <mxGeometry x="568" y="173.5" width="70" height="52.5" as="geometry" />
        </mxCell>
        <mxCell id="8ml1ASoGrdvTZ8Xq-LBT-28" style="edgeStyle=orthogonalEdgeStyle;rounded=0;orthogonalLoop=1;jettySize=auto;html=1;exitX=0.5;exitY=1;exitDx=0;exitDy=0;entryX=0;entryY=0;entryDx=35;entryDy=0;entryPerimeter=0;labelBackgroundColor=none;fontColor=default;" edge="1" parent="1" source="8ml1ASoGrdvTZ8Xq-LBT-27" target="8ml1ASoGrdvTZ8Xq-LBT-13">
          <mxGeometry relative="1" as="geometry" />
        </mxCell>
        <mxCell id="8ml1ASoGrdvTZ8Xq-LBT-35" style="edgeStyle=orthogonalEdgeStyle;rounded=0;orthogonalLoop=1;jettySize=auto;html=1;exitX=1;exitY=0.5;exitDx=0;exitDy=0;entryX=0.5;entryY=0;entryDx=0;entryDy=0;entryPerimeter=0;" edge="1" parent="1" target="n8_85XAYLcjXWphRHtEo-1">
          <mxGeometry relative="1" as="geometry">
            <mxPoint x="730" y="48" as="sourcePoint" />
            <Array as="points">
              <mxPoint x="780" y="48" />
              <mxPoint x="780" />
              <mxPoint x="160" />
              <mxPoint x="160" y="260" />
              <mxPoint x="230" y="260" />
            </Array>
          </mxGeometry>
        </mxCell>
        <mxCell id="8ml1ASoGrdvTZ8Xq-LBT-38" style="edgeStyle=orthogonalEdgeStyle;rounded=0;orthogonalLoop=1;jettySize=auto;html=1;exitX=0.5;exitY=1;exitDx=0;exitDy=0;entryX=0;entryY=0.5;entryDx=0;entryDy=0;" edge="1" parent="1" source="8ml1ASoGrdvTZ8Xq-LBT-37" target="8ml1ASoGrdvTZ8Xq-LBT-4">
          <mxGeometry relative="1" as="geometry" />
        </mxCell>
        <mxCell id="8ml1ASoGrdvTZ8Xq-LBT-37" value="ALUSrc" style="text;html=1;align=center;verticalAlign=middle;whiteSpace=wrap;rounded=0;labelBackgroundColor=none;" vertex="1" parent="1">
          <mxGeometry x="379" y="400.5" width="60" height="20" as="geometry" />
        </mxCell>
        <mxCell id="8ml1ASoGrdvTZ8Xq-LBT-40" value="wdata" style="text;html=1;align=center;verticalAlign=middle;whiteSpace=wrap;rounded=0;labelBackgroundColor=none;" vertex="1" parent="1">
          <mxGeometry x="872" y="370.5" width="40" height="20" as="geometry" />
        </mxCell>
        <mxCell id="8ml1ASoGrdvTZ8Xq-LBT-41" value="rdata" style="text;html=1;align=center;verticalAlign=middle;whiteSpace=wrap;rounded=0;labelBackgroundColor=none;" vertex="1" parent="1">
          <mxGeometry x="990" y="411.5" width="40" height="20" as="geometry" />
        </mxCell>
        <mxCell id="8ml1ASoGrdvTZ8Xq-LBT-42" value="addr" style="text;html=1;align=center;verticalAlign=middle;whiteSpace=wrap;rounded=0;labelBackgroundColor=none;" vertex="1" parent="1">
          <mxGeometry x="870" y="473" width="40" height="20" as="geometry" />
        </mxCell>
        <mxCell id="8ml1ASoGrdvTZ8Xq-LBT-71" style="edgeStyle=orthogonalEdgeStyle;rounded=0;orthogonalLoop=1;jettySize=auto;html=1;exitX=1;exitY=0.5;exitDx=0;exitDy=0;exitPerimeter=0;entryX=0.75;entryY=1;entryDx=0;entryDy=0;" edge="1" parent="1" source="8ml1ASoGrdvTZ8Xq-LBT-43" target="8ml1ASoGrdvTZ8Xq-LBT-66">
          <mxGeometry relative="1" as="geometry">
            <mxPoint x="-120" y="-50" as="targetPoint" />
            <Array as="points">
              <mxPoint x="971" y="165" />
              <mxPoint x="971" y="-74" />
            </Array>
          </mxGeometry>
        </mxCell>
        <mxCell id="8ml1ASoGrdvTZ8Xq-LBT-43" value="" style="shape=or;whiteSpace=wrap;html=1;direction=east;" vertex="1" parent="1">
          <mxGeometry x="830" y="150" width="29" height="31" as="geometry" />
        </mxCell>
        <mxCell id="8ml1ASoGrdvTZ8Xq-LBT-44" style="edgeStyle=orthogonalEdgeStyle;rounded=0;orthogonalLoop=1;jettySize=auto;html=1;exitX=1;exitY=0.25;exitDx=0;exitDy=0;entryX=0;entryY=0.75;entryDx=0;entryDy=0;entryPerimeter=0;" edge="1" parent="1" target="8ml1ASoGrdvTZ8Xq-LBT-43">
          <mxGeometry relative="1" as="geometry">
            <mxPoint x="730" y="369" as="sourcePoint" />
          </mxGeometry>
        </mxCell>
        <mxCell id="8ml1ASoGrdvTZ8Xq-LBT-45" style="edgeStyle=orthogonalEdgeStyle;rounded=0;orthogonalLoop=1;jettySize=auto;html=1;exitX=1;exitY=0.75;exitDx=0;exitDy=0;entryX=0;entryY=0.25;entryDx=0;entryDy=0;entryPerimeter=0;" edge="1" parent="1" target="8ml1ASoGrdvTZ8Xq-LBT-43">
          <mxGeometry relative="1" as="geometry">
            <mxPoint x="730" y="112.5" as="sourcePoint" />
          </mxGeometry>
        </mxCell>
        <mxCell id="8ml1ASoGrdvTZ8Xq-LBT-48" value="pip" style="rounded=0;whiteSpace=wrap;html=1;labelBackgroundColor=none;points=[[0,0,0,0,0],[0,0.16,0,0,0],[0,0.5,0,0,0],[0,0.82,0,0,0],[0,1,0,0,0],[0.25,0,0,0,0],[0.25,1,0,0,0],[0.5,0,0,0,0],[0.5,1,0,0,0],[0.75,0,0,0,0],[0.75,1,0,0,0],[1,0,0,0,0],[1,0.16,0,0,0],[1,0.5,0,0,0],[1,0.82,0,0,0],[1,1,0,0,0]];" vertex="1" parent="1">
          <mxGeometry y="200" width="30" height="220" as="geometry" />
        </mxCell>
        <mxCell id="8ml1ASoGrdvTZ8Xq-LBT-49" value="pip" style="rounded=0;whiteSpace=wrap;html=1;labelBackgroundColor=none;" vertex="1" parent="1">
          <mxGeometry x="700" y="20" width="30" height="730" as="geometry" />
        </mxCell>
        <mxCell id="8ml1ASoGrdvTZ8Xq-LBT-51" style="edgeStyle=orthogonalEdgeStyle;rounded=0;orthogonalLoop=1;jettySize=auto;html=1;exitX=0.5;exitY=0;exitDx=0;exitDy=0;entryX=0.5;entryY=1;entryDx=0;entryDy=0;" edge="1" parent="1" source="8ml1ASoGrdvTZ8Xq-LBT-50" target="8ml1ASoGrdvTZ8Xq-LBT-49">
          <mxGeometry relative="1" as="geometry" />
        </mxCell>
        <mxCell id="8ml1ASoGrdvTZ8Xq-LBT-50" value="b_rst" style="text;html=1;align=center;verticalAlign=middle;whiteSpace=wrap;rounded=0;labelBackgroundColor=none;" vertex="1" parent="1">
          <mxGeometry x="707.5" y="770" width="15" height="20" as="geometry" />
        </mxCell>
        <mxCell id="8ml1ASoGrdvTZ8Xq-LBT-73" style="edgeStyle=orthogonalEdgeStyle;rounded=0;orthogonalLoop=1;jettySize=auto;html=1;exitX=0.5;exitY=0;exitDx=0;exitDy=0;entryX=0;entryY=0.5;entryDx=0;entryDy=0;" edge="1" parent="1" source="8ml1ASoGrdvTZ8Xq-LBT-66" target="8ml1ASoGrdvTZ8Xq-LBT-1">
          <mxGeometry relative="1" as="geometry" />
        </mxCell>
        <mxCell id="8ml1ASoGrdvTZ8Xq-LBT-66" value="" style="shape=trapezoid;perimeter=trapezoidPerimeter;whiteSpace=wrap;html=1;fixedSize=1;fontFamily=Helvetica;fontSize=11;labelBackgroundColor=none;size=10;rotation=90;direction=west;" vertex="1" parent="1">
          <mxGeometry x="-202" y="-66" width="68" height="18" as="geometry" />
        </mxCell>
        <mxCell id="8ml1ASoGrdvTZ8Xq-LBT-67" value="0" style="text;html=1;align=center;verticalAlign=middle;whiteSpace=wrap;rounded=0;fontFamily=Helvetica;fontSize=11;labelBackgroundColor=none;" vertex="1" parent="1">
          <mxGeometry x="-172" y="-52" width="10" height="20" as="geometry" />
        </mxCell>
        <mxCell id="8ml1ASoGrdvTZ8Xq-LBT-68" value="1" style="text;html=1;align=center;verticalAlign=middle;whiteSpace=wrap;rounded=0;fontFamily=Helvetica;fontSize=11;labelBackgroundColor=none;" vertex="1" parent="1">
          <mxGeometry x="-173" y="-80" width="10" height="20" as="geometry" />
        </mxCell>
        <mxCell id="8ml1ASoGrdvTZ8Xq-LBT-75" style="edgeStyle=orthogonalEdgeStyle;rounded=0;orthogonalLoop=1;jettySize=auto;html=1;exitX=0.5;exitY=0;exitDx=0;exitDy=0;entryX=0;entryY=0.5;entryDx=0;entryDy=0;" edge="1" parent="1" source="8ml1ASoGrdvTZ8Xq-LBT-74" target="8ml1ASoGrdvTZ8Xq-LBT-66">
          <mxGeometry relative="1" as="geometry" />
        </mxCell>
        <mxCell id="8ml1ASoGrdvTZ8Xq-LBT-74" value="jal" style="text;html=1;align=center;verticalAlign=middle;whiteSpace=wrap;rounded=0;labelBackgroundColor=none;" vertex="1" parent="1">
          <mxGeometry x="-179" y="6" width="22" height="20" as="geometry" />
        </mxCell>
      </root>
    </mxGraphModel>
  </diagram>
</mxfile>
